<svg version="1.2" xmlns="http://www.w3.org/2000/svg" viewBox="0 0 16 16" width="16" height="16"><style>.a{fill:#036207}.b{fill:#01a309}</style><path class="a" d="m3 14.5q-0.3 0-0.6-0.1-0.2-0.1-0.5-0.3-0.2-0.3-0.3-0.5-0.1-0.3-0.1-0.6v-10q0-0.3 0.1-0.6 0.1-0.2 0.3-0.5 0.3-0.2 0.5-0.3 0.3-0.1 0.6-0.1h8q0.2 0 0.4 0.1 0.1 0.2 0.1 0.4 0 0.2-0.1 0.4-0.2 0.1-0.4 0.1h-8q-0.1 0-0.2 0-0.1 0.1-0.2 0.1 0 0.1-0.1 0.2 0 0.1 0 0.2v10q0 0.1 0 0.2 0.1 0.1 0.1 0.2 0.1 0 0.2 0.1 0.1 0 0.2 0h10q0.1 0 0.2 0 0.1-0.1 0.2-0.1 0-0.1 0.1-0.2 0-0.1 0-0.2v-5q0-0.2 0.1-0.4 0.2-0.1 0.4-0.1 0.2 0 0.4 0.1 0.1 0.2 0.1 0.4v5q0 0.3-0.1 0.6-0.1 0.2-0.3 0.5-0.3 0.2-0.5 0.3-0.3 0.1-0.6 0.1z"/><path class="b" d="m8.2 10.5q-0.1 0-0.2 0-0.1 0-0.2 0-0.1-0.1-0.2-0.1l-3-3q-0.1-0.2-0.1-0.4 0-0.2 0.1-0.4 0.2-0.1 0.4-0.1 0.2 0 0.4 0.1l2.6 2.7 6.6-6.7q0.2-0.1 0.4-0.1 0.2 0 0.4 0.1 0.1 0.2 0.1 0.4 0 0.2-0.1 0.4l-7 7q-0.1 0-0.2 0.1z"/></svg>