<svg version="1.2" xmlns="http://www.w3.org/2000/svg" viewBox="0 0 16 16" width="16" height="16"><style>.a{fill:#23860f}.b{fill:#1ea005}</style><path fill-rule="evenodd" class="a" d="m15.5 1.9q0.1 0.1 0.1 0.2 0 0.1 0 0.2 0 0.1 0 0.2 0 0.1-0.1 0.1l-1 1.1-2-2 1-1.1q0.1 0 0.2-0.1 0.1 0 0.2 0 0.1 0 0.1 0 0.1 0.1 0.2 0.1c0 0 1.3 1.3 1.3 1.3zm-1.7 2.5l-2-2-6.9 6.8q0 0 0 0.1 0 0 0 0 0 0-0.1 0.1 0 0 0 0l-0.8 2.4q0 0.1 0 0.2 0 0 0.1 0.1 0 0 0.1 0 0.1 0.1 0.1 0l2.4-0.8q0.1 0 0.1 0 0 0 0 0 0.1 0 0.1-0.1 0 0 0 0c0 0 6.9-6.8 6.9-6.8z"/><path fill-rule="evenodd" class="b" d="m1 2.5q0-0.3 0.1-0.6 0.1-0.2 0.3-0.5 0.3-0.2 0.5-0.3 0.3-0.1 0.6-0.1h6.5q0.2 0 0.4 0.1 0.1 0.2 0.1 0.4 0 0.2-0.1 0.4-0.2 0.1-0.4 0.1h-6.5q-0.1 0-0.2 0-0.1 0.1-0.2 0.1 0 0.1-0.1 0.2 0 0.1 0 0.2v11q0 0.1 0 0.2 0.1 0.1 0.1 0.2 0.1 0 0.2 0.1 0.1 0 0.2 0h11q0.1 0 0.2 0 0.1-0.1 0.2-0.1 0-0.1 0.1-0.2 0-0.1 0-0.2v-6q0-0.2 0.1-0.4 0.2-0.1 0.4-0.1 0.2 0 0.4 0.1 0.1 0.2 0.1 0.4v6q0 0.3-0.1 0.6-0.1 0.2-0.3 0.5-0.3 0.2-0.5 0.3-0.3 0.1-0.6 0.1h-11q-0.3 0-0.6-0.1-0.2-0.1-0.5-0.3-0.2-0.3-0.3-0.5-0.1-0.3-0.1-0.6z"/></svg>