<svg version="1.2" xmlns="http://www.w3.org/2000/svg" viewBox="0 0 16 16" width="16" height="16"><style>.a{fill:#fd2d2d}</style><path fill-rule="evenodd" class="a" d="m5.5 5.5q0.1 0 0.2 0 0.1 0.1 0.2 0.1 0 0.1 0.1 0.2 0 0.1 0 0.2v6q0 0.2-0.1 0.4-0.2 0.1-0.4 0.1-0.2 0-0.4-0.1-0.1-0.2-0.1-0.4v-6q0-0.1 0-0.2 0.1-0.1 0.1-0.2 0.1 0 0.2-0.1 0.1 0 0.2 0zm2.3 0q-0.1 0.1-0.2 0.1 0 0.1-0.1 0.2 0 0.1 0 0.2v6q0 0.2 0.1 0.4 0.2 0.1 0.4 0.1 0.2 0 0.4-0.1 0.1-0.2 0.1-0.4v-6q0-0.1 0-0.2-0.1-0.1-0.1-0.2-0.1 0-0.2-0.1-0.1 0-0.2 0-0.1 0-0.2 0zm3.2 0.5q0-0.2-0.1-0.4-0.2-0.1-0.4-0.1-0.2 0-0.4 0.1-0.1 0.2-0.1 0.4v6q0 0.2 0.1 0.4 0.2 0.1 0.4 0.1 0.2 0 0.4-0.1 0.1-0.2 0.1-0.4z"/><path fill-rule="evenodd" class="a" d="m14.5 3q0 0.2-0.1 0.4-0.1 0.2-0.2 0.3-0.1 0.1-0.3 0.2-0.2 0.1-0.4 0.1h-0.5v9q0 0.4-0.2 0.8-0.1 0.3-0.4 0.6-0.3 0.3-0.6 0.4-0.4 0.2-0.8 0.2h-6q-0.4 0-0.8-0.2-0.3-0.1-0.6-0.4-0.3-0.3-0.4-0.6-0.2-0.4-0.2-0.8v-9h-0.5q-0.2 0-0.4-0.1-0.2-0.1-0.3-0.2-0.1-0.1-0.2-0.3-0.1-0.2-0.1-0.4v-1q0-0.2 0.1-0.4 0.1-0.2 0.2-0.3 0.1-0.1 0.3-0.2 0.2-0.1 0.4-0.1h3.5q0-0.2 0.1-0.4 0.1-0.2 0.2-0.3 0.1-0.1 0.3-0.2 0.2-0.1 0.4-0.1h2q0.2 0 0.4 0.1 0.2 0.1 0.3 0.2 0.1 0.1 0.2 0.3 0.1 0.2 0.1 0.4h3.5q0.2 0 0.4 0.1 0.2 0.1 0.3 0.2 0.1 0.1 0.2 0.3 0.1 0.2 0.1 0.4zm-10.4 1l-0.1 0.1v8.9q0 0.2 0.1 0.4 0.1 0.2 0.2 0.3 0.1 0.1 0.3 0.2 0.2 0.1 0.4 0.1h6q0.2 0 0.4-0.1 0.2-0.1 0.3-0.2 0.1-0.1 0.2-0.3 0.1-0.2 0.1-0.4v-8.9l-0.1-0.1zm9.4-1v-1h-11v1z"/></svg>